<?xml version="1.0" encoding="utf-8"?>
<!-- Generator: Adobe Illustrator 17.0.0, SVG Export Plug-In . SVG Version: 6.00 Build 0)  -->
<!DOCTYPE svg PUBLIC "-//W3C//DTD SVG 1.1//EN" "http://www.w3.org/Graphics/SVG/1.1/DTD/svg11.dtd">
<svg version="1.1" id="图层_1" xmlns="http://www.w3.org/2000/svg" xmlns:xlink="http://www.w3.org/1999/xlink" x="0px" y="0px"
	 width="839.691px" height="99.6px" viewBox="0 0 839.691 99.6" enable-background="new 0 0 839.691 99.6" xml:space="preserve">
<g>
	<path fill-rule="evenodd" clip-rule="evenodd" fill="#FFFFFF" d="M797.721,27.957v11.781h33.871v35.448
		c0,6.206-1.262,9.677-5.68,11.571c-4.313,1.999-10.414,2.104-18.513,2.104c-0.526-3.682-2.419-8.941-4.208-12.307
		c5.259,0.316,11.466,0.316,13.043,0.21c1.788,0,2.314-0.421,2.314-1.788V51.939h-20.827v47.335h-13.043V51.939h-19.46V88.86
		h-12.622V39.738h32.082V27.957h-40.918V15.755h42.18c-1.578-3.787-3.576-8.099-5.365-11.571l12.412-3.892
		c2.63,4.839,6.101,11.15,7.889,15.463h38.814v12.202H797.721z M633.422,82.023h37.552V2.817h13.464v30.189h37.237v12.623h-37.237
		v36.395h44.074v12.623h-95.09V82.023z M603.344,94.541h-16.725V99.8h-11.991V52.465h41.339v46.914h-12.623V94.541z M603.344,64.457
		h-16.725v18.092h16.725V64.457z M540.126,5.657h61.64v38.078h-61.64V5.657z M552.222,31.849h36.816v-14.2h-36.816V31.849z
		 M565.686,99.274h-12.517v-4.733h-15.673V99.8H525.61V52.465h40.077V99.274z M553.169,64.457h-15.673v18.092h15.673V64.457z
		 M499.318,99.379h-12.202V47.732h-10.308v0.736c0,15.463-1.367,36.921-10.414,50.069c-1.999-2.209-6.942-6.101-9.572-7.468
		c1.999-2.945,3.576-6.416,4.628-10.098l-8.31,5.259c-1.683-4.313-5.259-10.94-8.205-15.778l8.205-4.523
		c3.156,4.733,6.627,10.94,8.415,14.831c3.261-10.308,3.576-22.195,3.576-32.293V11.547c11.571-2.104,24.298-5.365,31.872-8.941
		l9.677,9.151c-8.731,3.366-19.565,5.996-29.873,7.889v16.515H509.1v11.571h-9.783V99.379z M443.147,53.622h17.356v10.519h-17.356
		v22.51c0,5.049-0.841,7.679-3.997,9.467c-3.156,1.683-7.363,1.788-12.938,1.788c-0.421-2.945-1.893-7.258-3.366-10.203
		c3.156,0.105,6.416,0.105,7.574,0.105s1.473-0.316,1.473-1.473V64.141h-19.355V53.622h19.355v-8.1h-19.986V35.215h10.308
		c-0.526-3.261-1.683-7.679-3.156-10.94l8.625-2.104h-14.2V11.968h17.987c-0.947-2.84-2.104-5.785-3.156-8.31l11.15-2.63
		c1.578,3.366,3.366,7.468,4.523,10.94h16.62v10.203h-13.254l8.625,1.683c-1.683,3.997-3.156,8.099-4.733,11.36h10.94v10.308
		h-19.039V53.622z M444.62,22.171h-15.463c1.788,3.576,3.156,8.52,3.576,11.676l-5.049,1.367h12.412
		C441.675,31.428,443.568,26.063,444.62,22.171z M429.368,69.401c-2.524,6.942-6.522,14.411-10.624,19.039
		c-1.893-1.578-5.785-4.523-8.099-5.891c3.997-3.997,7.153-9.993,9.046-15.568L429.368,69.401z M347.467,97.7l-21.988-23.55
		c-1.645-1.8-3.44-3.451-6.133-3.451c-2.841,0-4.338,1.65-5.983,3.451L291.076,97.7H268.34l33.655-35.55l-33.655-34.95h22.736
		L313.213,50c2.543,2.699,4.638,3.45,6.133,3.45c1.496,0,3.59-0.75,6.133-3.45l21.839-22.8h22.885l-33.505,34.95
		c10.62,11.399,22.886,24.149,33.505,35.55H347.467z M256.991,67.55c0,24.9-21.987,32.25-64.468,32.25
		c-25.429,0-47.268-3.6-56.242-5.7V78.5c11.966,2.55,35.002,6.449,56.242,6.449c31.412,0,44.275-4.5,44.275-17.4
		c0-13.8-10.32-15.75-39.339-15.75c-16.305,0-30.216,0.45-46.071,1.05c-12.415,0.45-14.808-5.099-13.462-14.1l6.282-38.55h106.5
		v15.15h-90.345c-1.197,7.951-2.543,15.15-3.74,22.95c12.266-0.75,28.57-1.35,42.63-1.35C238.742,36.95,256.991,42.65,256.991,67.55
		z M28.869,83h86.905V97.7H8.227C2.542,97.7,0,94.999,0,90.949c0-3.45,1.346-5.699,5.683-9.15l82.867-66.9H3.74V0.2h105.304
		c5.534,0,8.227,2.549,8.227,6.599c0,3.301-1.795,5.7-5.834,9.3L28.869,83z"/>
</g>
</svg>
